<?xml version="1.0" encoding="UTF-8"?><svg id="Layer_1" xmlns="http://www.w3.org/2000/svg" xmlns:xlink="http://www.w3.org/1999/xlink" viewBox="0 0 1920 580.28"><defs><style>.cls-1{fill:url(#linear-gradient);}.cls-2{fill:#fff;}.cls-3{fill:url(#linear-gradient-2);}.cls-4{fill:url(#radial-gradient);}</style><radialGradient id="radial-gradient" cx="129.65" cy="310.03" fx="129.65" fy="310.03" r="102.53" gradientTransform="translate(0 582.28) scale(1 -1)" gradientUnits="userSpaceOnUse"><stop offset="0" stop-color="#cb3b4d"/><stop offset="1" stop-color="#a52d5c"/></radialGradient><linearGradient id="linear-gradient" x1="0" y1="427.64" x2="255.07" y2="427.64" gradientTransform="translate(0 582.28) scale(1 -1)" gradientUnits="userSpaceOnUse"><stop offset="0" stop-color="#e63257"/><stop offset=".51" stop-color="#e63359"/><stop offset="1" stop-color="#ee7d62"/></linearGradient><linearGradient id="linear-gradient-2" x1="3.85" y1="175.76" x2="229.18" y2="175.76" gradientTransform="translate(0 582.28) scale(1 -1)" gradientUnits="userSpaceOnUse"><stop offset="0" stop-color="#e63257"/><stop offset=".51" stop-color="#e63257"/><stop offset="1" stop-color="#ee7d62"/></linearGradient></defs><g><path class="cls-4" d="M89.27,373.04c-3.19,0-6.38,0-9.57-3.19l-51.01-51.01c-3.19-3.19-3.19-6.38-3.19-9.57s0-6.38,3.19-9.57l127.53-124.35c3.19-3.19,6.38-3.19,9.57-3.19s6.38,0,9.57,3.19l54.2,51.01c3.19,0,3.19,6.38,3.19,9.57s0,6.38-3.19,9.57l-130.72,124.35c-3.19,3.19-6.38,3.19-9.57,3.19Z"/><path class="cls-1" d="M229.56,124.35L124.35,22.32C108.4,9.57,89.27,0,66.96,0S22.32,9.57,6.38,25.51C0,28.7,0,31.88,0,35.07s0,6.38,3.19,9.57L146.66,181.74c3.19,3.19,6.38,3.19,6.38,6.38,31.88,35.07,35.07,86.09,6.38,121.16l70.14-66.96h0c15.94-12.75,25.51-35.07,25.51-57.39s-9.57-44.64-25.51-60.58Z"/><path class="cls-3" d="M105.22,353.91c-31.88-35.07-35.07-86.09-3.19-121.16L31.88,299.7h0c-15.94,15.94-25.51,38.26-25.51,60.58s9.57,44.64,25.51,60.58l153.04,156.23c3.19,3.19,6.38,3.19,9.57,3.19s6.38,0,9.57-3.19c15.94-15.94,25.51-38.26,25.51-60.58s-9.57-44.64-25.51-60.58l-95.65-95.65h0c0-3.19-3.19-3.19-3.19-6.38Z"/></g><g><path class="cls-2" d="M551.73,187.42c-6.59,0-12.68,1.01-19.27,2.54h0c-6.09,2.03-12.17,4.57-17.75,7.61-5.58,3.04-10.14,7.1-14.2,11.16-1.52,1.52-3.04,3.04-4.06,4.57v-23.33h-49.71v193.26h49.71v-83.69c0-22.83,4.57-39.56,14.2-49.71,9.13-10.14,22.83-15.22,41.09-15.22,3.55,0,6.09,0,8.12,.51,2.03,.51,5.07,1.01,8.12,1.52l3.55,1.01v-45.65l-2.03-.51c-4.06-3.04-10.65-4.06-17.75-4.06Z"/><path class="cls-2" d="M1900.22,187.42c-6.59,0-12.68,1.01-19.27,2.54h0c-6.09,2.03-12.17,4.57-17.75,7.61-5.58,3.04-10.14,7.1-14.2,11.16-1.52,1.52-3.04,3.04-4.06,4.57v-23.33h-49.71v193.26h49.71v-83.69c0-22.83,4.57-39.56,14.2-49.71,9.13-10.14,22.83-15.22,41.09-15.22,3.55,0,6.09,0,8.12,.51,2.03,.51,5.07,1.01,8.12,1.52l3.55,1.01v-45.65l-2.03-.51c-4.06-3.04-10.65-4.06-17.75-4.06Z"/><path class="cls-2" d="M832.23,215.32h0c-9.13-9.13-19.78-16.74-32.46-22.32-12.68-5.58-26.88-8.12-42.1-8.12s-29.42,2.54-41.59,8.12c-12.17,5.58-23.33,12.68-31.96,22.32-8.62,9.13-15.72,20.29-20.29,32.46-4.57,12.17-7.1,25.36-7.1,38.55s2.54,26.88,7.1,39.06c4.57,12.17,11.67,22.83,20.29,32.46,8.62,9.13,19.78,16.74,31.96,22.32,12.17,5.58,26.38,8.12,41.59,8.12s29.42-2.54,42.1-8.12c12.68-5.58,23.33-12.68,32.46-22.32,9.13-9.13,15.72-20.29,20.8-32.46,4.57-12.17,7.1-25.36,7.1-39.06s-2.54-26.38-7.1-38.55c-5.07-12.17-11.67-23.33-20.8-32.46Zm-52.75,123.26c-6.59,3.04-13.7,4.57-21.3,4.57s-15.22-1.52-21.3-4.57c-6.09-3.04-11.67-7.1-16.23-12.17-4.57-5.07-8.12-11.16-10.65-17.75-2.54-7.1-3.55-14.2-3.55-21.81s1.01-15.22,3.55-21.81c2.54-6.59,6.09-12.68,10.65-17.75,4.57-5.07,10.14-9.13,16.23-12.17,6.09-3.04,13.19-4.57,21.3-4.57s15.22,1.52,21.3,4.57c6.59,3.04,12.17,7.1,16.74,12.17,4.57,5.07,8.12,11.16,10.65,17.75,2.54,7.1,4.06,14.2,4.06,21.81s-1.52,15.22-4.06,21.81c-2.54,7.1-6.09,12.68-10.65,17.75-4.56,5.07-10.14,9.13-16.74,12.17Z"/><path class="cls-2" d="M1106.14,289.89c0,15.22-3.55,28.41-10.65,39.06-7.1,10.14-17.25,15.22-31.45,15.22-7.1,0-13.19-1.52-18.26-4.06-4.57-2.54-8.62-6.59-11.67-10.65-3.04-4.57-5.07-10.14-6.09-16.74-1.52-6.59-2.03-14.2-2.03-21.81v-99.93h-49.71v114.64c0,13.19,1.01,23.84,2.54,32.97,2.03,9.13,5.07,17.25,10.14,24.35,5.58,8.12,13.19,14.71,22.83,19.27,9.64,4.57,21.81,7.1,35.51,7.1,19.78,0,45.14-3.04,58.33-19.27v14.2h49.71V190.97h-49.71v98.91h.51Z"/><path class="cls-2" d="M1385.62,340.1h-11.67c-4.06,0-7.61-.51-10.65-1.01-3.04-.51-5.07-2.03-7.1-4.06-2.03-2.03-3.55-5.58-4.57-9.64-1.01-4.57-1.52-10.65-1.52-18.77v-74.06h43.12v-42.61h-43.12v-56.81h-49.71v56.81h-31.96v42.61h31.96v84.2c0,16.23,2.03,28.91,6.59,38.55,4.57,9.13,10.14,16.23,16.74,20.8,6.59,4.57,13.7,7.1,21.3,8.12,7.1,1.01,13.7,1.52,18.77,1.52,6.59,0,12.68-.51,18.77-1.01,6.09-.51,10.65-1.01,14.2-1.52l2.54-.51v-45.14l-4.06,1.52c-1.52,.51-4.06,1.01-9.64,1.01Z"/><path class="cls-2" d="M1652.94,210.25h0c-8.12-8.12-17.75-14.2-28.91-18.77-11.16-4.57-22.83-6.59-35-6.59-15.22,0-28.91,2.54-40.58,7.61-11.67,5.07-21.81,12.17-29.93,21.3-8.12,9.13-14.2,19.78-18.26,32.46-4.06,12.17-6.59,25.87-6.59,40.07s2.03,27.39,6.09,39.56c4.06,12.17,10.14,23.33,18.26,32.46,8.12,9.13,18.26,16.23,30.43,21.81,12.17,5.07,26.38,8.12,42.61,8.12,12.17,0,23.84-1.52,33.48-5.07,10.14-3.55,18.77-8.12,26.38-13.7,7.61-5.58,13.7-12.68,18.26-20.29,4.57-7.61,7.61-15.72,9.13-24.35l.51-3.55h-49.71l-.51,2.03c-2.54,6.09-6.59,11.67-11.67,16.23-5.07,4.57-13.7,6.59-25.36,6.59-8.62,0-16.23-1.01-21.81-3.55-5.58-2.54-10.65-5.58-14.2-9.64-3.55-4.06-6.09-9.13-8.12-14.2-1.52-4.57-2.54-9.64-3.04-15.22h133.4l.51-2.54c1.01-6.09,1.52-11.67,2.03-16.23v-11.67c0-12.17-2.54-23.84-7.1-34.49-5.58-11.16-12.17-20.8-20.29-28.41Zm-64.93,13.7c12.68,0,22.83,4.06,30.94,11.67,7.1,7.1,11.16,16.74,11.67,28.91h-87.24c.51-13.19,4.57-22.83,12.68-29.42,8.12-7.61,18.77-11.16,31.96-11.16Z"/></g></svg>