<svg width="12" height="25" viewBox="0 0 12 25" fill="none" xmlns="http://www.w3.org/2000/svg">
<path d="M3.97949 16.0835C3.8276 16.0823 3.68138 16.0262 3.56827 15.9257L1.32647 13.7032C1.27111 13.6504 1.22706 13.5871 1.19697 13.517C1.16688 13.447 1.15137 13.3716 1.15137 13.2955C1.15137 13.2193 1.16688 13.144 1.19697 13.0739C1.22706 13.0039 1.27111 12.9406 1.32647 12.8878L6.8978 7.53537C7.00431 7.43254 7.14709 7.375 7.29576 7.375C7.44442 7.375 7.58721 7.43254 7.69371 7.53537L9.9753 9.71843C10.0307 9.77119 10.0747 9.8345 10.1048 9.90456C10.1349 9.97461 10.1504 10.05 10.1504 10.1261C10.1504 10.2022 10.1349 10.2776 10.1048 10.3477C10.0747 10.4177 10.0307 10.481 9.9753 10.5338L4.32438 15.9257C4.23161 16.0167 4.10955 16.0726 3.97949 16.0835Z" fill="url(#paint0_radial)"/>
<path d="M9.97533 5.3656L5.43868 1.03893C4.74546 0.372417 3.81766 -0.000227851 2.85199 1.04523e-07C2.35636 0.0055431 1.86674 0.108338 1.4114 0.302454C0.956047 0.49657 0.543981 0.778163 0.198976 1.13098C0.080749 1.23535 0.00917626 1.38199 0 1.53866C0.000678578 1.61252 0.0162895 1.68548 0.0459094 1.75325C0.0755292 1.82101 0.118556 1.8822 0.172446 1.93319L6.39376 7.89058C6.51053 7.98448 6.62129 8.0855 6.72539 8.19306C7.4078 8.89017 7.8068 9.81237 7.84596 10.783C7.88512 11.7537 7.5617 12.7045 6.93763 13.4534L9.97533 10.5208C10.3239 10.1849 10.601 9.78321 10.7902 9.33934C10.9794 8.89548 11.0769 8.41849 11.0769 7.93661C11.0769 7.45473 10.9794 6.97775 10.7902 6.53388C10.601 6.09001 10.3239 5.68828 9.97533 5.35245V5.3656Z" fill="url(#paint1_linear)"/>
<path d="M4.51041 15.2819C3.828 14.5848 3.429 13.6626 3.38984 12.6919C3.35068 11.7213 3.6741 10.7704 4.29817 10.0215L1.32679 12.8884C0.968362 13.2271 0.684373 13.6355 0.49263 14.0881C0.300888 14.5407 0.205528 15.0277 0.212528 15.5186C0.203502 16.0062 0.294036 16.4905 0.478684 16.9425C0.663333 17.3945 0.938283 17.8048 1.287 18.1488L8.09198 24.8952C8.14452 24.9463 8.20673 24.9865 8.27503 25.0136C8.34334 25.0407 8.41637 25.0541 8.48993 25.053C8.64182 25.0519 8.78804 24.9957 8.90115 24.8952C9.25088 24.5506 9.52843 24.1408 9.71782 23.6894C9.90722 23.238 10.0047 22.7539 10.0047 22.265C10.0047 21.7762 9.90722 21.2921 9.71782 20.8407C9.52843 20.3893 9.25088 19.9795 8.90115 19.6348L4.74918 15.5186L4.51041 15.2819Z" fill="url(#paint2_linear)"/>
<defs>
<radialGradient id="paint0_radial" cx="0" cy="0" r="1" gradientUnits="userSpaceOnUse" gradientTransform="translate(5.63762 11.7305) scale(4.45706 4.41873)">
<stop stop-color="#BE4650"/>
<stop offset="1" stop-color="#9B375A"/>
</radialGradient>
<linearGradient id="paint1_linear" x1="0" y1="6.72015" x2="11.0763" y2="6.72015" gradientUnits="userSpaceOnUse">
<stop stop-color="#FF3C55"/>
<stop offset="0.51" stop-color="#FF3D56"/>
<stop offset="1" stop-color="#FF8B65"/>
</linearGradient>
<linearGradient id="paint2_linear" x1="0.172733" y1="17.5044" x2="9.94909" y2="17.5044" gradientUnits="userSpaceOnUse">
<stop stop-color="#FF3C55"/>
<stop offset="0.51" stop-color="#FF3C55"/>
<stop offset="1" stop-color="#FF8B65"/>
</linearGradient>
</defs>
</svg>
