<svg width="500" height="300" viewBox="0 0 500 300" fill="none" xmlns="http://www.w3.org/2000/svg">
<path d="M139.9 161.8C139.4 161.8 139 161.8 138.5 161.3L131.1 153.9C130.9 153.7 130.8 153.6 130.8 153.4C130.7 153.3 130.6 152.9 130.7 152.5C130.7 152.3 130.8 152.2 130.9 152.1C131 152 131.1 151.9 131.2 151.8C131.4 151.6 131.5 151.4 131.6 151.3C133.4 149.6 135.1 147.9 136.9 146.3C140.9 142.4 144.9 138.5 148.9 134.6C148.9 134.4 149.2 133.2 150.1 132.9C150.4 132.8 150.8 132.8 151 132.8C151.5 132.8 151.9 132.8 152.4 133.3L160.2 140.7C160.5 141.1 160.8 141.6 160.7 142.1C160.6 142.6 160.1 142.9 159.9 143C159 143.5 156.2 146.3 150.9 151.9C147.7 155 144.6 158.1 141.4 161.1C141.3 161.2 141.2 161.5 140.9 161.7C140.6 161.8 140.3 161.8 139.9 161.8Z" fill="#AF145B"/>
<path d="M160.1 125.9L144.9 111.2C142.6 109.4 139.8 108 136.6 108C133.4 108 130.2 109.4 127.9 111.7C127 112.2 127 112.6 127 113.1C127 113.6 127 114 127.5 114.5L148.2 134.3C148.7 134.8 149.1 134.8 149.1 135.2C153.7 140.3 154.2 147.6 150 152.7L160.1 143C162.4 141.2 163.8 137.9 163.8 134.7C163.8 131.5 162.4 128.2 160.1 125.9Z" fill="url(#paint0_linear_696_7682)"/>
<path d="M142.2 159.1C137.6 154 137.1 146.7 141.7 141.6L131.6 151.3C129.3 153.6 127.9 156.8 127.9 160C127.9 163.2 129.3 166.4 131.6 168.7L153.7 191.2C154.2 191.7 154.6 191.7 155.1 191.7C155.6 191.7 156 191.7 156.5 191.2C158.8 188.9 160.2 185.7 160.2 182.5C160.2 179.3 158.8 176.1 156.5 173.8L142.7 160C142.6 159.5 142.2 159.5 142.2 159.1Z" fill="url(#paint1_linear_696_7682)"/>
<path d="M201.799 146.5C202.499 144.7 203.499 143.4 205.099 142.5C206.599 141.6 208.399 141.2 210.199 141.2V149.1C207.999 148.8 206.099 149.3 204.299 150.4C202.599 151.5 201.799 153.4 201.799 156.1V169.3H194.699V141.7H201.799V146.5ZM242.299 166C239.499 168.8 235.999 170.2 231.899 170.2C227.799 170.2 224.399 168.8 221.499 166C218.699 163.2 217.299 159.7 217.299 155.6C217.299 151.5 218.699 148.1 221.499 145.3C224.299 142.5 227.799 141 231.899 141C235.999 141 239.399 142.4 242.299 145.3C245.099 148.1 246.599 151.5 246.599 155.6C246.599 159.7 245.199 163.1 242.299 166ZM226.599 161.1C227.999 162.5 229.799 163.3 231.999 163.3C234.199 163.3 235.899 162.6 237.399 161.1C238.799 159.7 239.599 157.8 239.599 155.6C239.599 153.4 238.899 151.6 237.399 150.1C235.999 148.7 234.199 147.9 231.999 147.9C229.799 147.9 228.099 148.6 226.599 150.1C225.199 151.5 224.499 153.4 224.499 155.6C224.499 157.8 225.199 159.6 226.599 161.1ZM275.299 141.8H282.399V169.4H275.299V166.3C273.599 168.9 270.799 170.2 267.099 170.2C264.099 170.2 261.599 169.2 259.599 167.2C257.599 165.2 256.699 162.4 256.699 158.8V141.9H263.799V158C263.799 159.8 264.299 161.3 265.299 162.3C266.299 163.3 267.599 163.7 269.299 163.7C271.099 163.7 272.599 163.1 273.699 162C274.799 160.9 275.399 159.1 275.399 156.9L275.299 141.8ZM310.299 148.6H303.999V160.1C303.999 161.1 304.199 161.8 304.699 162.2C305.199 162.6 305.899 162.9 306.799 163C307.699 163 308.899 163 310.199 162.9V169.4C305.299 170 301.799 169.5 299.799 168C297.799 166.5 296.799 163.9 296.799 160.1V148.6H291.999V141.8H296.799V136.2L303.899 134V141.7H310.099V148.6H310.299ZM325.999 158.5C326.999 162 329.599 163.7 333.799 163.7C336.499 163.7 338.599 162.8 339.999 160.9L345.699 164.2C342.999 168.1 338.999 170.1 333.699 170.1C329.099 170.1 325.499 168.7 322.699 166C319.899 163.2 318.599 159.8 318.599 155.6C318.599 151.4 319.999 148 322.699 145.2C325.399 142.4 328.899 141 333.199 141C337.199 141 340.599 142.4 343.199 145.2C345.799 148 347.199 151.5 347.199 155.6C347.199 156.5 347.099 157.5 346.899 158.5H325.999ZM325.899 153H339.999C339.599 151.1 338.699 149.7 337.499 148.8C336.199 147.9 334.799 147.4 333.199 147.4C331.299 147.4 329.699 147.9 328.499 148.9C327.099 149.9 326.299 151.2 325.899 153ZM364.699 146.5C365.399 144.7 366.399 143.4 367.999 142.5C369.499 141.6 371.299 141.2 373.099 141.2V149.1C370.899 148.8 368.999 149.3 367.199 150.4C365.499 151.5 364.699 153.4 364.699 156.1V169.3H357.599V141.7H364.699V146.5Z" fill="#CB0766"/>
<defs>
<linearGradient id="paint0_linear_696_7682" x1="127" y1="130.35" x2="163.8" y2="130.35" gradientUnits="userSpaceOnUse">
<stop stop-color="#CB0766"/>
<stop offset="1" stop-color="#E04391"/>
</linearGradient>
<linearGradient id="paint1_linear_696_7682" x1="127.541" y1="166.65" x2="160.05" y2="166.65" gradientUnits="userSpaceOnUse">
<stop stop-color="#CB0766"/>
<stop offset="1" stop-color="#E04391"/>
</linearGradient>
</defs>
</svg>
